REM DIRINDEX 1\2\6,1\2\7,1\2\8,1\2\9,1\3\10,1\3\11,1\4\12,1\4\13,1\4\14,1\5\15,1\5\16,1\5\17
REM DIRNAME folder01,folder02,folder03,folder04,folder05,folder06,folder07,folder08,folder09,folder10,folder11,folder12,folder13,folder14,folder15,folder16,folder17
TITLE ""
FILE "1400_2_sec09_0833_0849.mp3" MP3
  TRACK 01 AUDIO
    TITLE "0:"
    INDEX 01 00:00:00
  TRACK 02 AUDIO
    TITLE "13:cjc029_3266"
    INDEX 01 00:00:17
  TRACK 03 AUDIO
    TITLE "0:"
    INDEX 01 00:01:34
  TRACK 04 AUDIO
    TITLE "14:cjc029_3267"
    INDEX 01 00:01:38
  TRACK 05 AUDIO
    TITLE "0:"
    INDEX 01 00:07:00
  TRACK 06 AUDIO
    TITLE "13:cjc029_3268"
    INDEX 01 00:07:58
  TRACK 07 AUDIO
    TITLE "0:"
    INDEX 01 00:08:62
  TRACK 08 AUDIO
    TITLE "14:cjc029_3269"
    INDEX 01 00:08:68
  TRACK 09 AUDIO
    TITLE "0:"
    INDEX 01 00:11:19
  TRACK 10 AUDIO
    TITLE "13:cjc029_3270"
    INDEX 01 00:12:09
  TRACK 11 AUDIO
    TITLE "0:"
    INDEX 01 00:13:12
  TRACK 12 AUDIO
    TITLE "14:cjc029_3271"
    INDEX 01 00:13:18
  TRACK 13 AUDIO
    TITLE "0:"
    INDEX 01 00:16:06
  TRACK 14 AUDIO
    TITLE "13:cjc029_3272"
    INDEX 01 00:16:61
  TRACK 15 AUDIO
    TITLE "0:"
    INDEX 01 00:18:07
  TRACK 16 AUDIO
    TITLE "14:cjc029_3273"
    INDEX 01 00:18:11
  TRACK 17 AUDIO
    TITLE "0:"
    INDEX 01 00:22:60
  TRACK 18 AUDIO
    TITLE "13:cjc029_3274"
    INDEX 01 00:23:42
  TRACK 19 AUDIO
    TITLE "0:"
    INDEX 01 00:24:55
  TRACK 20 AUDIO
    TITLE "14:cjc029_3275"
    INDEX 01 00:24:59
  TRACK 21 AUDIO
    TITLE "0:"
    INDEX 01 00:25:74
  TRACK 22 AUDIO
    TITLE "13:cjc029_3276"
    INDEX 01 00:26:56
  TRACK 23 AUDIO
    TITLE "0:"
    INDEX 01 00:27:61
  TRACK 24 AUDIO
    TITLE "14:cjc029_3277"
    INDEX 01 00:27:65
  TRACK 25 AUDIO
    TITLE "0:"
    INDEX 01 00:31:37
  TRACK 26 AUDIO
    TITLE "13:cjc029_3278"
    INDEX 01 00:32:19
  TRACK 27 AUDIO
    TITLE "0:"
    INDEX 01 00:33:17
  TRACK 28 AUDIO
    TITLE "14:cjc029_3279"
    INDEX 01 00:33:22
  TRACK 29 AUDIO
    TITLE "0:"
    INDEX 01 00:36:13
  TRACK 30 AUDIO
    TITLE "13:cjc029_3280"
    INDEX 01 00:36:70
  TRACK 31 AUDIO
    TITLE "0:"
    INDEX 01 00:38:20
  TRACK 32 AUDIO
    TITLE "14:cjc029_3281"
    INDEX 01 00:38:24
  TRACK 33 AUDIO
    TITLE "0:"
    INDEX 01 00:39:54
  TRACK 34 AUDIO
    TITLE "13:cjc029_3282"
    INDEX 01 00:40:34
  TRACK 35 AUDIO
    TITLE "0:"
    INDEX 01 00:41:49
  TRACK 36 AUDIO
    TITLE "14:cjc029_3283"
    INDEX 01 00:41:53
  TRACK 37 AUDIO
    TITLE "0:"
    INDEX 01 00:43:44
  TRACK 38 AUDIO
    TITLE "13:cjc029_3284"
    INDEX 01 00:44:26
  TRACK 39 AUDIO
    TITLE "0:"
    INDEX 01 00:45:41
  TRACK 40 AUDIO
    TITLE "14:cjc029_3285"
    INDEX 01 00:45:45
  TRACK 41 AUDIO
    TITLE "0:"
    INDEX 01 00:48:22
  TRACK 42 AUDIO
    TITLE "12:cjc029_3286"
    INDEX 01 00:49:70
  TRACK 43 AUDIO
    TITLE "0:"
    INDEX 01 00:51:24
  TRACK 44 AUDIO
    TITLE "13:cjc029_3287"
    INDEX 01 00:52:30
  TRACK 45 AUDIO
    TITLE "0:"
    INDEX 01 00:53:72
  TRACK 46 AUDIO
    TITLE "14:cjc029_3288"
    INDEX 01 00:54:01
  TRACK 47 AUDIO
    TITLE "0:"
    INDEX 01 00:55:28
  TRACK 48 AUDIO
    TITLE "13:cjc029_3289"
    INDEX 01 00:56:10
  TRACK 49 AUDIO
    TITLE "0:"
    INDEX 01 00:57:31
  TRACK 50 AUDIO
    TITLE "14:cjc029_3290"
    INDEX 01 00:57:33
  TRACK 51 AUDIO
    TITLE "0:"
    INDEX 01 01:00:64
  TRACK 52 AUDIO
    TITLE "13:cjc029_3291"
    INDEX 01 01:01:46
  TRACK 53 AUDIO
    TITLE "0:"
    INDEX 01 01:02:59
  TRACK 54 AUDIO
    TITLE "14:cjc029_3292"
    INDEX 01 01:02:63
  TRACK 55 AUDIO
    TITLE "0:"
    INDEX 01 01:06:12
  TRACK 56 AUDIO
    TITLE "13:cjc029_3293"
    INDEX 01 01:06:67
  TRACK 57 AUDIO
    TITLE "0:"
    INDEX 01 01:07:68
  TRACK 58 AUDIO
    TITLE "14:cjc029_3294"
    INDEX 01 01:07:70
  TRACK 59 AUDIO
    TITLE "0:"
    INDEX 01 01:08:66
  TRACK 60 AUDIO
    TITLE "13:cjc029_3295"
    INDEX 01 01:09:48
  TRACK 61 AUDIO
    TITLE "0:"
    INDEX 01 01:10:61
  TRACK 62 AUDIO
    TITLE "14:cjc029_3296"
    INDEX 01 01:10:65
  TRACK 63 AUDIO
    TITLE "0:"
    INDEX 01 01:14:12
  TRACK 64 AUDIO
    TITLE "13:cjc029_3297"
    INDEX 01 01:14:68
  TRACK 65 AUDIO
    TITLE "0:"
    INDEX 01 01:15:74
  TRACK 66 AUDIO
    TITLE "14:cjc029_3298"
    INDEX 01 01:16:05
  TRACK 67 AUDIO
    TITLE "0:"
    INDEX 01 01:18:45
  TRACK 68 AUDIO
    TITLE "13:cjc029_3299"
    INDEX 01 01:19:25
  TRACK 69 AUDIO
    TITLE "0:"
    INDEX 01 01:20:30
  TRACK 70 AUDIO
    TITLE "14:cjc029_3300"
    INDEX 01 01:20:36
  TRACK 71 AUDIO
    TITLE "0:"
    INDEX 01 01:22:33
